<svg width="276" height="84" viewBox="0 0 276 84" fill="none" xmlns="http://www.w3.org/2000/svg">
<path d="M27.6001 72.2906C22.803 69.5209 21.1593 63.3869 23.929 58.5897L47.3316 18.0551C50.1012 13.258 56.2353 11.6144 61.0325 14.384L78.9835 24.7481C83.7806 27.5177 85.4242 33.6518 82.6546 38.4489L59.252 78.9835C56.4823 83.7806 50.3483 85.4242 45.5511 82.6546L27.6001 72.2906Z" fill="#2563EB"/>
<path d="M10.8072 62.5951C6.01002 59.8255 4.36641 53.6914 7.13603 48.8943L30.5387 8.35972C33.3083 3.56258 39.4424 1.91896 44.2395 4.68859L61.901 14.8855C66.6981 17.6551 68.3418 23.7892 65.5721 28.5863L42.1695 69.1209C39.3999 73.918 33.2658 75.5616 28.4687 72.792L10.8072 62.5951Z" fill="#60A5FA"/>
<path d="M5.01653 59.252C0.219397 56.4823 -1.42423 50.3483 1.3454 45.5511L24.748 5.01653C27.5177 0.21939 33.6517 -1.42423 38.4489 1.3454L43.6605 4.35431C48.4576 7.12394 50.1012 13.258 47.3316 18.0551L23.929 58.5897C21.1593 63.3869 15.0252 65.0305 10.2281 62.2609L5.01653 59.252Z" fill="#BFDBFE"/>
<path d="M124.523 66V27.984H136.115V66H124.523ZM130.355 22.656C128.147 22.656 126.443 22.2 125.243 21.288C124.091 20.328 123.515 18.984 123.515 17.256C123.515 15.432 124.091 14.064 125.243 13.152C126.443 12.192 128.147 11.712 130.355 11.712C132.611 11.712 134.315 12.192 135.467 13.152C136.667 14.064 137.267 15.408 137.267 17.184C137.267 18.96 136.667 20.328 135.467 21.288C134.315 22.2 132.611 22.656 130.355 22.656Z" fill="black"/>
<path d="M145.124 66V27.984H154.484L154.628 39.144H156.068C156.692 36.456 157.58 34.2 158.732 32.376C159.884 30.552 161.348 29.208 163.124 28.344C164.9 27.432 166.988 26.976 169.388 26.976C173.852 26.976 177.236 28.536 179.54 31.656C181.892 34.776 183.068 39.744 183.068 46.56V66H171.404V47.856C171.404 43.92 170.828 41.064 169.676 39.288C168.572 37.464 166.916 36.552 164.708 36.552C162.884 36.552 161.372 37.104 160.172 38.208C159.02 39.312 158.156 40.776 157.58 42.6C157.004 44.424 156.716 46.464 156.716 48.72V66H145.124Z" fill="black"/>
<path d="M205.286 67.008C202.118 67.008 199.334 66.216 196.934 64.632C194.582 63 192.734 60.696 191.39 57.72C190.046 54.696 189.374 51.096 189.374 46.92C189.374 43.08 189.95 39.672 191.102 36.696C192.254 33.72 193.958 31.392 196.214 29.712C198.518 27.984 201.35 27.12 204.71 27.12C207.11 27.12 209.126 27.552 210.758 28.416C212.438 29.28 213.83 30.576 214.934 32.304C216.038 34.032 216.926 36.216 217.598 38.856H219.398C219.062 37.224 218.75 35.688 218.462 34.248C218.174 32.76 217.934 31.392 217.742 30.144C217.598 28.848 217.526 27.72 217.526 26.76V14.16H229.19V66H219.686L219.542 54.768H217.958C217.43 57.648 216.59 60 215.438 61.824C214.334 63.6 212.918 64.92 211.19 65.784C209.51 66.6 207.542 67.008 205.286 67.008ZM209.462 57.648C210.95 57.648 212.198 57.336 213.206 56.712C214.262 56.04 215.102 55.2 215.726 54.192C216.35 53.184 216.806 52.104 217.094 50.952C217.382 49.8 217.526 48.72 217.526 47.712V46.2C217.526 45.288 217.406 44.376 217.166 43.464C216.926 42.552 216.566 41.664 216.086 40.8C215.654 39.936 215.102 39.168 214.43 38.496C213.758 37.824 212.966 37.296 212.054 36.912C211.19 36.528 210.23 36.336 209.174 36.336C207.59 36.336 206.222 36.768 205.07 37.632C203.966 38.496 203.102 39.72 202.478 41.304C201.902 42.888 201.614 44.76 201.614 46.92C201.614 49.08 201.926 50.976 202.55 52.608C203.174 54.192 204.086 55.44 205.286 56.352C206.486 57.216 207.878 57.648 209.462 57.648Z" fill="black"/>
<path d="M234.476 66L247.004 46.992L234.548 27.984H247.868L254.132 41.952H255.5L261.764 27.984H275.084L262.556 46.992L275.156 66H261.908L255.5 51.888H254.132L247.868 66H234.476Z" fill="black"/>
</svg>
